<svg width="1920" height="1080" viewBox="0 0 1920 1080" fill="none" xmlns="http://www.w3.org/2000/svg">
<path d="M205.005 -16.3017C205.005 -16.3017 199.691 -9.34177 189.063 4.57811C178.435 18.498 170.048 30.5313 163.903 40.678C157.757 50.8247 150.154 63.8858 141.093 79.8614C132.032 95.8369 124.024 109.819 117.07 121.809C110.116 133.798 102.312 148.371 93.6576 165.529C85.0031 182.686 77.5683 197.266 71.3533 209.269C65.1383 221.272 58.0916 235.615 50.2132 252.297C42.3348 268.98 36.0534 283.776 31.3691 296.687C26.6847 309.598 21.7213 324.169 16.479 340.4C11.2367 356.631 7.27699 372.832 4.59988 389.002C1.92276 405.171 0.193715 418.894 -0.58726 430.169C-1.36824 441.444 -1.63635 453.087 -1.39161 465.098C-1.14687 477.11 -0.108596 487.53 1.72322 496.36C3.55503 505.19 5.83952 515.581 8.5767 527.534C11.3139 539.487 13.907 549.881 16.3561 558.717C18.8052 567.553 21.9798 576.111 25.8799 584.391C29.78 592.67 33.8831 600.728 38.1891 608.564C42.4951 616.4 48.4135 624.893 55.9441 634.043C63.4747 643.194 72.4777 649.395 82.953 652.647C93.4284 655.899 108.583 655.887 128.417 652.613C148.252 649.338 163.99 645.818 175.632 642.051C187.275 638.284 203.712 632.811 224.944 625.631C246.177 618.452 267.894 611.479 290.095 604.712C312.297 597.946 341.126 587.535 376.58 573.479C412.035 559.423 444.429 547.221 473.763 536.872C503.096 526.523 536.893 514.565 575.152 500.997C613.411 487.428 652.864 473.957 693.509 460.583C734.155 447.209 768.782 435.798 797.391 426.35C826.001 416.903 856.613 408.234 889.228 400.346C921.843 392.457 950.248 386.033 974.444 381.073C998.641 376.114 1024.5 371.755 1052.02 367.998C1079.55 364.24 1102.82 361.566 1121.83 359.976C1140.85 358.386 1161.43 357.256 1183.57 356.585C1205.71 355.914 1224.83 355.441 1240.93 355.165C1257.03 354.888 1274.4 355.794 1293.05 357.881C1311.7 359.969 1329.7 362.841 1347.07 366.5C1364.43 370.158 1379.28 373.743 1391.59 377.257C1403.91 380.77 1416.39 386.176 1429.03 393.474C1441.67 400.773 1452.13 407.278 1460.42 412.99C1468.71 418.702 1477.07 428.644 1485.49 442.816C1493.91 456.987 1500.84 473.886 1506.3 493.511C1511.76 513.136 1515.62 530.729 1517.9 546.289C1520.17 561.85 1520.18 582.313 1517.93 607.681C1515.67 633.048 1513.52 655.282 1511.47 674.384C1509.42 693.485 1506.65 715.328 1503.16 739.914C1499.66 764.499 1496.11 786.429 1492.52 805.702C1488.93 824.975 1485.87 845.07 1483.35 865.986C1480.83 886.902 1478.77 909.105 1477.17 932.595C1475.58 956.084 1474.48 975.272 1473.88 990.16C1473.29 1005.05 1473.44 1019.26 1474.35 1032.81C1475.26 1046.35 1478.72 1059.58 1484.74 1072.5C1490.76 1085.41 1500.45 1096.52 1513.82 1105.8C1527.19 1115.09 1541.75 1120.61 1557.51 1122.37C1573.27 1124.13 1588.8 1124.22 1604.1 1122.65C1619.4 1121.08 1640.43 1115.75 1667.2 1106.65C1693.96 1097.56 1718.46 1087.89 1740.7 1077.63C1762.93 1067.37 1791.15 1052.76 1825.34 1033.8C1859.53 1014.84 1890.83 996.213 1919.22 977.917C1947.6 959.621 1982.33 936.781 2023.39 909.396C2064.45 882.011 2101.47 857.326 2134.46 835.342C2167.44 813.358 2206.99 787.606 2253.11 758.084C2299.23 728.563 2322.86 713.559 2324 713.071C2325.15 712.583 2326.34 712.301 2327.57 712.224C2328.81 712.147 2330.02 712.281 2331.21 712.623C2332.41 712.966 2333.52 713.5 2334.54 714.226C2335.57 714.953 2336.46 715.832 2337.21 716.866C2337.96 717.899 2338.54 719.032 2338.94 720.265C2339.34 721.498 2339.54 722.766 2339.55 724.068C2339.55 725.371 2339.36 726.641 2338.97 727.877C2338.58 729.114 2338.02 730.253 2337.27 731.293C2336.53 732.334 2335.65 733.223 2334.63 733.959C2333.61 734.695 2332.5 735.24 2331.31 735.594C2330.13 735.949 2328.91 736.093 2327.68 736.029C2326.44 735.964 2325.25 735.694 2324.1 735.217C2322.95 734.74 2321.9 734.082 2320.96 733.243C2320.01 732.405 2319.22 731.428 2318.58 730.315C2317.93 729.202 2317.48 728.01 2317.21 726.739C2316.94 725.468 2316.86 724.184 2316.99 722.888C2317.12 721.592 2317.44 720.352 2317.96 719.167C2318.47 717.982 2319.15 716.915 2319.99 715.965C2320.84 715.015 2321.81 714.233 2322.9 713.617C2323.99 713.002 2325.14 712.586 2326.36 712.369C2327.58 712.153 2328.8 712.147 2330.02 712.352C2331.24 712.557 2332.4 712.962 2333.49 713.567C2334.59 714.172 2335.56 714.946 2336.41 715.888C2337.27 716.83 2337.96 717.89 2338.48 719.07C2339.01 720.25 2339.34 721.488 2339.48 722.782C2339.62 724.077 2339.55 725.361 2339.29 726.634C2339.03 727.908 2338.59 729.105 2337.95 730.224C2337.32 731.343 2336.54 732.327 2335.6 733.174C2334.66 734.022 2334.19 734.446 2334.19 734.445C2334.19 734.445 2311.21 749.194 2265.25 778.695C2219.29 808.195 2179.84 833.977 2146.91 856.04C2113.98 878.103 2076.97 902.915 2035.88 930.475C1994.79 958.034 1959.87 981.175 1931.12 999.897C1902.37 1018.62 1870.7 1037.7 1836.1 1057.15C1801.51 1076.59 1772.75 1091.77 1749.83 1102.68C1726.91 1113.59 1701.24 1124.02 1672.82 1133.98C1644.39 1143.93 1621.54 1150.03 1604.24 1152.28C1586.95 1154.52 1568.5 1154.61 1548.9 1152.53C1529.3 1150.46 1513.82 1145.96 1502.45 1139.05C1491.09 1132.14 1482.51 1125.05 1476.72 1117.77C1470.93 1110.49 1466.06 1102.42 1462.1 1093.58C1458.14 1084.73 1455.38 1076.03 1453.84 1067.48C1452.3 1058.93 1451.23 1047.43 1450.65 1033C1450.07 1018.56 1450.15 1003.81 1450.91 988.737C1451.66 973.668 1452.84 954.169 1454.42 930.239C1456.01 906.31 1458.07 883.615 1460.61 862.156C1463.14 840.696 1466.13 820.504 1469.57 801.58C1473.01 782.656 1476.39 761.051 1479.72 736.766C1483.05 712.481 1485.65 690.838 1487.5 671.837C1489.36 652.837 1491.32 631.697 1493.39 608.419C1495.46 585.14 1495.43 566.339 1493.29 552.015C1491.15 537.691 1487.61 521.842 1482.68 504.468C1477.75 487.094 1472.14 472.72 1465.84 461.345C1459.55 449.97 1452.96 441.431 1446.08 435.728C1439.2 430.026 1430.31 423.802 1419.41 417.057C1408.51 410.312 1397.34 404.989 1385.88 401.088C1374.42 397.187 1360.34 393.469 1343.65 389.933C1326.96 386.397 1309.75 383.617 1292.02 381.592C1274.3 379.567 1257.44 378.704 1241.44 379.003C1225.45 379.303 1206.57 379.794 1184.81 380.477C1163.05 381.161 1142.86 382.301 1124.22 383.897C1105.58 385.493 1082.75 388.161 1055.72 391.9C1028.69 395.64 1003.22 400.005 979.291 404.997C955.365 409.989 927.409 416.404 895.424 424.241C863.439 432.079 833.163 440.805 804.597 450.421C776.03 460.036 741.55 471.613 701.155 485.152C660.761 498.691 621.49 512.399 583.343 526.275C545.196 540.151 511.685 552.418 482.809 563.075C453.933 573.733 421.565 586.495 385.705 601.363C349.845 616.23 321.116 627.397 299.519 634.865C277.922 642.332 256.605 650.252 235.567 658.623C214.528 666.993 197.787 673.495 185.343 678.126C172.899 682.758 159.271 687.254 144.46 691.614C129.649 695.975 113.875 697.374 97.1389 695.814C80.4022 694.253 66.6416 690.193 55.8571 683.635C45.0725 677.076 35.5343 667.748 27.2424 655.649C18.9505 643.551 12.6604 633.117 8.37224 624.347C4.08403 615.577 -0.142372 606.047 -4.30698 595.757C-8.47158 585.467 -11.523 575.708 -13.4613 566.481C-15.3996 557.253 -17.7304 546.334 -20.4536 533.724C-23.1769 521.114 -25.1838 509.549 -26.4745 499.027C-27.7651 488.506 -28.3144 476.737 -28.1224 463.719C-27.9303 450.702 -27.0711 438.325 -25.5447 426.589C-24.0183 414.853 -21.8792 400.25 -19.1272 382.78C-16.3752 365.31 -12.4489 348.18 -7.34824 331.391C-2.24759 314.601 2.8345 299.443 7.89803 285.917C12.9616 272.39 19.3752 256.961 27.1389 239.63C34.9025 222.299 41.9223 207.811 48.1981 196.165C54.474 184.52 61.9012 169.706 70.48 151.723C79.0587 133.741 86.7727 118.876 93.622 107.13C100.471 95.3844 108.31 81.1082 117.139 64.3019C125.967 47.4956 133.768 33.7909 140.539 23.1877C147.31 12.5845 155.715 0.0828602 165.754 -14.3173C175.793 -28.7175 181.243 -36.3787 182.102 -37.3008C182.961 -38.2229 183.913 -39.0233 184.957 -39.7018C186.001 -40.3804 187.106 -40.9174 188.274 -41.3129C189.442 -41.7083 190.637 -41.9508 191.86 -42.0403C193.084 -42.1297 194.3 -42.0636 195.508 -41.8418C196.716 -41.6201 197.882 -41.2491 199.004 -40.729C200.127 -40.2089 201.174 -39.5547 202.146 -38.7665C203.118 -37.9783 203.987 -37.0789 204.752 -36.0684C205.516 -35.0579 206.155 -33.9656 206.669 -32.7915C207.182 -31.6174 207.554 -30.3956 207.786 -29.1262C208.017 -27.8568 208.102 -26.5766 208.038 -25.2856C207.975 -23.9947 207.766 -22.7304 207.412 -21.4929C207.057 -20.2554 206.567 -19.0807 205.942 -17.9686C205.317 -16.8565 205.005 -16.3013 205.005 -16.3017Z" fill="#AAE4D7" fill-opacity="0.29"/>
</svg>
